<mxfile host="app.diagrams.net" modified="2023-12-25T08:38:18.166Z" agent="Mozilla/5.0 (Windows NT 10.0; Win64; x64) AppleWebKit/537.36 (KHTML, like Gecko) Chrome/120.0.0.0 Safari/537.36" version="22.0.0" etag="-3o2mmgbboaiiHn4Zb9Z" type="github">
  <diagram name="Page-1" id="UILpImHFJ2RVOHEmrT_K">
    <mxGraphModel>
      <root>
        <mxCell id="0" />
        <mxCell id="1" parent="0" />
      </root>
    </mxGraphModel>
  </diagram>
</mxfile>
